<?xml version="1.0" encoding="UTF-8"?>
<!DOCTYPE svg PUBLIC "-//W3C//DTD SVG 1.1//EN" "http://www.w3.org/Graphics/SVG/1.1/DTD/svg11.dtd">
<!-- Creator: CorelDRAW X6 -->
<svg xmlns="http://www.w3.org/2000/svg" xml:space="preserve" width="297mm" height="210mm" version="1.1" style="shape-rendering:geometricPrecision; text-rendering:geometricPrecision; image-rendering:optimizeQuality; fill-rule:evenodd; clip-rule:evenodd"
viewBox="0 0 29700 21000"
 xmlns:xlink="http://www.w3.org/1999/xlink">
 <defs>
  <style type="text/css">
   <![CDATA[
    .str0 {stroke:#2B2A29;stroke-width:20}
    .fil1 {fill:none}
    .fil2 {fill:#009846}
    .fil3 {fill:#EF7F1A}
    .fil0 {fill:#2B2A29;fill-rule:nonzero}
   ]]>
  </style>
 </defs>
 <g id="Слой_x0020_1">
  <metadata id="CorelCorpID_0Corel-Layer"/>
  <path class="fil0" d="M23298 6726c0,323 -1315,1877 -2268,4440 -953,2561 -1427,3990 -1427,4286l-861 0c0,-388 -347,-1513 -1038,-3374 -754,-2016 -1183,-3314 -1285,-3897l-86 0c-88,619 -467,1942 -1138,3970 -625,1901 -939,3001 -939,3301l-858 0c0,-449 -468,-1958 -1400,-4521 -933,-2565 -3191,-5383 -3191,-5548l3048 1455c0,182 335,1323 1003,3427 668,2105 1003,3392 1003,3864l72 0c0,-499 338,-1780 1018,-3841 680,-2062 1019,-3211 1019,-3450l1158 0c0,286 352,1510 1059,3669 704,2159 1057,3367 1057,3622l74 0c0,-432 321,-1655 962,-3667 641,-2014 962,-3222 962,-3624l2056 -112z"/>
  <polygon class="fil1 str0" points="16361,2415 20515,9731 24670,17047 16361,17047 8052,17047 12206,9731 "/>
  <path class="fil2 str0" d="M17704 12078c-754,-2016 -1183,-3314 -1285,-3897l-86 0c-88,619 -467,1942 -1138,3970 -625,1901 -939,3001 -939,3301l-858 0c0,-449 -468,-1958 -1400,-4521 -60,-163 -125,-328 -194,-492l-3752 6608 8309 0 8309 0 -3519 -6197c-41,104 -81,209 -121,316 -953,2561 -1427,3990 -1427,4286l-861 0c0,-388 -347,-1513 -1038,-3374z"/>
  <path class="fil3 str0" d="M15970 6838l1158 0c0,286 352,1510 1059,3669 704,2159 1057,3367 1057,3622l74 0c0,-432 321,-1655 962,-3667 83,-259 160,-505 232,-738l-4151 -7309 -3844 6768c102,327 216,688 341,1082 668,2105 1003,3392 1003,3864l72 0c0,-499 338,-1780 1018,-3841 680,-2062 1019,-3211 1019,-3450z"/>
 </g>
</svg>
